<svg height="512pt" viewBox="0 0 512 512" width="512pt" xmlns="http://www.w3.org/2000/svg"><path d="m0 121h512v391h-512zm0 0" fill="#0d91bd"/><path d="m256 121h256v391h-256zm0 0" fill="#0b799d"/><path d="m61 91h391v361h-391zm0 0" fill="#ebebf0"/><path d="m256 91h196v361h-196zm0 0" fill="#d2d2d7"/><path d="m316 151h60v30h-60zm0 0"/><path d="m331 313.898438h30v47.101562h-30zm0 0" fill="#0d91bd"/><g fill="#d2d2d7"><path d="m121 151h90v30h-90zm0 0"/><path d="m121 211h90v30h-90zm0 0"/><path d="m211 391h-90v-120h90zm0 0"/></g><path d="m346 313.898438h15v47.101562h-15zm0 0" fill="#0b799d"/><path d="m391 45v106l-30 30h-30l-30-30v-106c0-24.902344 20.097656-45 45-45s45 20.097656 45 45zm0 0" fill="#7ed8f6"/><path d="m391 45v106l-30 30h-15v-181c24.902344 0 45 20.097656 45 45zm0 0" fill="#2fc0f0"/><path d="m391 151v124.199219l-45 72-45-72v-124.199219zm0 0" fill="#0d91bd"/><path d="m391 151v124.199219l-45 72v-196.199219zm0 0" fill="#0b799d"/></svg>